<?xml version="1.0" standalone="no"?>
<!DOCTYPE svg PUBLIC "-//W3C//DTD SVG 20010904//EN"
 "http://www.w3.org/TR/2001/REC-SVG-20010904/DTD/svg10.dtd">
<svg version="1.0" xmlns="http://www.w3.org/2000/svg"
 width="512.000000pt" height="512.000000pt" viewBox="0 0 512.000000 512.000000"
 preserveAspectRatio="xMidYMid meet">
<metadata>
Created by potrace 1.11, written by Peter Selinger 2001-2013
</metadata>
<g transform="translate(0.000000,512.000000) scale(0.100000,-0.100000)"
fill="#000000" stroke="none">
<path d="M2325 5096 c-140 -41 -189 -62 -237 -104 -29 -25 -69 -55 -90 -68
-20 -13 -39 -28 -42 -33 -4 -5 -48 -43 -99 -85 -175 -143 -175 -143 -72 -92
50 24 124 56 165 70 41 15 84 30 95 35 29 13 171 48 230 56 28 4 56 12 63 18
7 5 30 7 51 4 23 -3 44 0 50 6 9 9 14 8 20 -2 6 -9 20 -12 40 -9 17 2 31 1 31
-2 0 -4 21 -8 48 -9 26 -1 72 -4 102 -7 30 -2 66 -6 80 -7 14 -1 30 5 37 13
11 13 12 13 13 -3 0 -13 6 -17 23 -15 12 2 27 -4 34 -12 10 -13 17 -13 45 -2
26 10 35 10 43 0 12 -15 45 -20 45 -6 0 5 5 6 10 3 6 -4 8 -11 5 -16 -4 -5 1
-9 9 -9 9 0 16 5 16 10 0 6 7 10 16 10 8 0 12 -4 9 -10 -7 -12 5 -13 23 -2 8
6 -5 16 -40 31 -29 12 -76 34 -103 47 -28 13 -58 24 -68 24 -9 0 -17 4 -17 8
0 19 -208 91 -355 121 -22 5 -67 16 -100 25 -60 16 -62 17 -80 12z"/>
<path d="M2609 3906 c-2 -2 -49 -6 -104 -9 -55 -4 -116 -11 -135 -16 -19 -5
-54 -13 -77 -16 -175 -25 -475 -144 -634 -253 -102 -69 -202 -154 -235 -199
-16 -21 -42 -54 -58 -72 -47 -57 -93 -167 -134 -324 -35 -138 -40 -149 -70
-167 -33 -20 -45 -60 -18 -60 18 0 73 -46 65 -54 -3 -4 -17 3 -32 14 -42 34
-47 27 -47 -69 0 -91 16 -157 75 -306 12 -33 26 -80 29 -105 4 -25 15 -65 26
-90 10 -25 26 -81 35 -125 17 -79 20 -91 45 -150 8 -19 14 -96 17 -205 4 -175
7 -198 38 -300 31 -105 36 -93 -57 -146 -105 -62 -209 -110 -371 -174 -71 -27
-149 -60 -175 -72 -26 -12 -213 -92 -417 -179 l-370 -157 -3 -336 -2 -336
2560 0 2560 0 0 419 0 418 -144 67 c-79 37 -157 71 -172 75 -119 37 -222 66
-299 87 -79 20 -136 40 -249 86 -55 23 -221 109 -237 124 -8 8 -20 14 -26 14
-5 0 -18 9 -28 20 -28 31 -48 26 -43 -10 3 -19 0 -31 -10 -35 -20 -7 -24 -6
-17 5 3 5 3 10 -2 10 -4 0 -9 11 -9 24 -1 18 2 23 13 19 12 -5 14 -1 9 15 -4
13 -1 31 9 45 8 13 12 27 9 30 -4 4 -1 13 6 22 7 9 10 18 7 22 -4 3 1 12 10
18 12 9 18 29 19 71 1 33 11 84 23 114 17 45 21 76 21 170 0 63 -5 133 -11
155 -5 22 -14 74 -19 115 -22 180 -30 248 -36 300 -5 47 -24 130 -42 180 -3 8
-4 19 -3 25 3 11 -26 147 -41 195 -6 19 -12 71 -13 115 -1 49 -6 80 -14 83
-14 5 -14 -24 -1 -103 5 -33 12 -87 15 -120 3 -33 10 -80 15 -105 31 -140 38
-185 33 -193 -3 -5 -1 -12 5 -16 8 -4 8 -20 1 -50 -5 -24 -7 -52 -4 -62 9 -26
-3 -43 -20 -29 -9 8 -14 6 -19 -6 -4 -10 -2 -20 4 -24 6 -4 8 -17 6 -31 -3
-13 -5 -30 -5 -37 -1 -7 -4 -11 -8 -9 -5 3 -14 -1 -20 -9 -8 -7 -9 -15 -4 -19
6 -3 8 -15 5 -28 -3 -12 -6 -37 -8 -55 -3 -34 -15 -56 -17 -31 0 8 -4 5 -8 -6
-5 -11 -5 -28 0 -37 16 -30 10 -48 -16 -48 -19 0 -23 4 -19 18 5 14 4 14 -4 2
-6 -8 -8 -18 -5 -23 3 -5 -1 -13 -8 -18 -9 -6 -10 -9 -2 -9 6 0 15 5 18 10 4
6 11 8 16 4 6 -3 1 -13 -12 -22 -20 -14 -23 -14 -35 2 -7 10 -17 15 -23 12 -5
-4 -12 -2 -16 4 -3 5 -11 10 -17 10 -7 0 -6 -6 2 -15 11 -13 9 -15 -13 -15
-14 0 -28 -7 -31 -16 -4 -11 -2 -15 8 -11 11 4 13 -1 10 -25 -5 -42 -12 -46
-23 -14 -13 32 -21 34 -14 4 5 -23 5 -23 -11 -3 -16 19 -17 19 -14 -10 1 -17
-1 -35 -5 -42 -4 -6 -4 -19 -1 -30 5 -15 4 -15 -5 -3 -6 8 -11 26 -11 40 0 32
-20 65 -20 35 0 -17 -2 -17 -10 -5 -7 11 -10 7 -10 -17 0 -48 -15 -48 -38 0
-15 31 -20 36 -18 17 1 -14 7 -34 13 -45 9 -15 8 -25 -3 -40 -13 -17 -14 -16
-15 18 -1 20 -3 42 -4 47 -1 6 -3 13 -4 18 -1 4 -6 0 -11 -8 -8 -13 -14 -12
-47 6 -23 12 -36 26 -34 35 12 44 8 67 -15 80 -13 7 -24 16 -24 21 0 4 -9 8
-20 8 -13 0 -20 7 -20 19 0 11 -9 23 -20 26 -11 3 -20 13 -20 20 0 8 -4 17
-10 20 -6 4 -8 -6 -6 -25 2 -17 0 -33 -5 -36 -5 -3 -9 -14 -9 -24 0 -11 -12
-26 -27 -34 -27 -14 -25 -15 39 -13 65 2 68 1 79 -26 7 -15 20 -32 31 -38 13
-7 17 -16 12 -31 -4 -13 -2 -18 4 -14 16 10 26 -15 11 -25 -12 -8 -11 -11 3
-19 9 -6 15 -17 12 -24 -3 -8 -1 -17 5 -21 21 -12 11 -26 -10 -15 -11 7 -23 9
-26 6 -6 -6 40 -26 58 -26 6 0 7 6 3 13 -5 8 -2 7 9 -2 16 -13 16 -15 1 -32
-21 -23 -25 -24 -18 -4 5 11 -1 15 -20 15 -29 0 -30 -3 -16 -30 6 -12 17 -17
28 -14 16 5 16 5 0 -9 -10 -8 -18 -23 -18 -33 -1 -18 -1 -18 -15 0 -14 19 -15
19 -15 -7 0 -38 31 -99 48 -92 7 3 10 0 7 -6 -4 -6 -13 -8 -21 -5 -8 3 -14 0
-15 -7 0 -7 -4 -2 -10 11 -5 13 -13 21 -19 17 -6 -3 -7 1 -4 9 3 9 2 16 -4 16
-5 0 -12 -6 -14 -12 -6 -17 2 -39 11 -34 4 3 7 -5 6 -17 -2 -24 13 -62 22 -53
3 3 0 12 -7 21 -7 8 -9 15 -4 14 5 0 27 -22 49 -47 39 -45 32 -49 -12 -9 -17
15 -23 17 -23 6 -1 -9 -9 -5 -24 12 -12 14 -36 29 -52 33 -23 5 -25 4 -11 -4
23 -15 22 -34 -3 -27 -24 6 -27 -15 -4 -37 9 -9 17 -22 18 -29 2 -15 36 -65
36 -53 0 5 -7 18 -17 28 -9 11 -11 18 -5 18 7 0 12 -3 12 -7 0 -5 9 -19 20
-33 l20 -25 -6 35 -5 35 15 -32 c8 -18 19 -33 24 -33 5 0 9 -15 8 -34 0 -19
-5 -32 -9 -29 -5 3 -7 16 -4 29 2 14 -1 25 -9 28 -8 3 -14 0 -14 -6 0 -7 -6
-4 -12 5 -9 11 -18 14 -27 8 -20 -13 -4 -31 26 -31 19 0 24 -4 19 -16 -3 -9
-7 -39 -8 -67 -1 -40 -2 -44 -5 -18 -3 19 -12 41 -21 49 -9 7 -11 11 -4 7 7
-4 12 0 12 10 0 9 -16 25 -35 36 -36 21 -44 34 -24 41 7 2 5 9 -5 17 -13 11
-17 11 -22 -3 -3 -9 -3 -24 2 -33 4 -10 6 -24 5 -30 -2 -13 16 -53 28 -63 8
-7 32 -90 32 -112 0 -10 4 -18 10 -18 5 0 9 11 9 24 0 14 5 28 10 31 6 3 10
-5 10 -19 0 -14 -5 -28 -10 -31 -13 -8 -6 -60 9 -79 6 -7 8 -16 4 -19 -3 -4 2
-16 12 -27 10 -11 16 -20 13 -20 -2 0 -17 14 -34 32 -16 17 -23 28 -16 24 6
-4 12 -3 12 2 0 16 -12 21 -25 9 -11 -10 -10 -17 3 -40 9 -15 19 -27 23 -27 4
0 12 -13 19 -30 10 -24 10 -32 -3 -45 -9 -8 -18 -11 -22 -6 -3 5 -1 12 5 16
16 10 12 33 -9 54 -11 11 -17 21 -15 24 2 2 -5 12 -16 22 -22 20 -28 8 -7 -15
10 -12 9 -12 -6 0 -10 7 -16 19 -13 26 3 8 -3 18 -12 23 -9 6 -12 11 -7 11 10
0 -15 20 -27 20 -3 0 -4 -30 -1 -67 3 -48 9 -72 21 -81 15 -12 13 -12 -13 -6
-39 9 -43 13 -25 25 11 7 6 8 -15 3 -38 -8 -45 -13 -45 -25 0 -6 9 -7 21 -4
15 5 19 4 15 -4 -4 -6 -15 -11 -24 -11 -10 0 -13 -3 -7 -8 6 -4 10 -14 10 -22
0 -8 9 -16 20 -18 34 -7 44 -25 10 -20 -16 3 -24 3 -17 1 26 -9 10 -23 -25
-22 -27 0 -33 3 -20 8 17 6 16 8 -8 19 -33 15 -36 15 -29 -3 4 -8 2 -15 -3
-15 -5 0 -14 -21 -21 -46 -11 -40 -15 -44 -34 -38 -22 7 -22 7 -4 -22 l19 -29
-28 25 -27 25 7 -25 c4 -14 8 -25 9 -26 12 -9 73 -34 83 -34 25 0 44 25 30 40
-10 10 -8 10 10 1 26 -13 85 -15 64 -2 -17 11 -7 41 14 41 8 0 15 -4 15 -10 0
-5 4 -10 10 -10 13 0 1 31 -23 58 -11 12 -17 22 -13 22 4 0 18 -12 32 -27 25
-27 26 -27 40 -9 7 11 16 17 20 14 3 -4 14 2 25 13 10 10 25 16 33 13 10 -4
17 2 21 19 5 17 12 24 21 20 8 -3 14 0 14 6 0 6 7 11 15 11 8 0 15 5 15 11 0
5 5 7 10 4 6 -3 10 0 10 7 0 8 13 19 29 25 29 10 34 25 18 50 -6 9 -3 11 7 7
9 -3 16 -2 16 4 0 6 9 8 20 5 11 -3 26 0 33 6 11 8 17 5 26 -15 24 -54 -85
-220 -244 -373 -104 -99 -211 -180 -290 -218 -27 -13 -57 -27 -65 -32 -50 -27
-71 -36 -153 -67 -51 -20 -124 -44 -163 -54 -69 -19 -71 -19 -135 1 -145 44
-149 46 -149 90 0 38 -1 39 -37 39 -87 0 -256 82 -403 195 -73 57 -250 240
-250 259 0 9 -9 25 -20 36 -24 24 -26 40 -5 40 8 0 15 5 15 10 0 7 -7 7 -20 0
-16 -9 -22 -7 -27 6 -4 10 -2 19 5 22 7 2 10 8 6 13 -6 10 7 12 30 3 9 -3 13
-10 10 -15 -3 -5 2 -9 10 -9 9 0 16 -3 16 -7 0 -16 117 -133 133 -133 9 0 21
-8 26 -17 8 -14 13 -15 19 -5 9 14 45 5 36 -9 -3 -5 4 -9 14 -9 20 0 36 -25
27 -40 -3 -4 5 -8 18 -8 29 0 47 -5 77 -22 26 -15 39 -18 79 -22 13 -1 25 -8
28 -15 3 -8 12 -9 30 -2 17 6 30 6 38 -1 6 -5 14 -7 17 -4 3 3 34 -2 69 -10
35 -8 68 -12 74 -8 5 3 4 -2 -4 -11 -16 -20 -17 -19 69 -17 56 1 241 22 340
39 30 5 58 7 62 5 4 -2 14 6 23 18 14 20 16 20 13 4 -4 -25 29 -30 35 -5 6 22
-15 42 -36 33 -13 -5 -15 1 -11 32 6 46 14 58 14 20 0 -16 4 -25 10 -21 6 3
10 0 10 -8 0 -8 9 -22 20 -32 16 -15 22 -15 35 -5 12 10 15 10 15 -4 0 -20 10
-20 35 -2 19 13 18 15 -15 28 -25 11 -37 12 -42 4 -5 -7 -8 -3 -8 9 0 17 -2
18 -11 5 -9 -12 -10 -11 -6 7 3 15 1 20 -9 16 -8 -3 -14 0 -14 6 0 6 5 11 10
11 6 0 10 16 10 35 0 43 -20 46 -55 9 -13 -14 -27 -26 -32 -26 -28 -3 -43 -12
-44 -27 0 -11 -3 -10 -9 6 -6 15 -15 20 -30 16 -14 -4 -20 -1 -18 8 4 20 -33
18 -62 -4 -15 -11 -26 -14 -28 -8 -10 30 -22 4 -22 -46 0 -39 -3 -53 -9 -43
-6 8 -8 18 -5 22 6 9 -14 48 -24 48 -4 0 -5 -22 -4 -50 2 -27 1 -50 -3 -50 -4
0 -20 14 -35 30 -15 17 -23 30 -17 30 6 0 8 2 5 5 -3 3 -18 1 -33 -5 -26 -10
-27 -9 -21 14 5 20 2 24 -19 24 -14 0 -22 -4 -20 -8 3 -5 -6 -17 -19 -27 -13
-11 -26 -30 -29 -44 -4 -23 -4 -23 -6 4 0 15 -6 27 -12 27 -5 0 -8 4 -5 9 3 5
-1 11 -9 15 -8 3 -15 11 -15 17 0 9 3 9 14 0 18 -15 46 -3 46 20 0 21 -15 25
-26 7 -5 -7 -3 -8 6 -3 8 5 11 4 7 -2 -4 -6 -18 -8 -32 -6 -19 4 -27 0 -34
-18 -5 -13 -10 -18 -10 -11 -1 8 -6 10 -13 6 -7 -4 3 8 22 25 19 18 30 30 24
27 -7 -3 -10 4 -8 20 2 18 -2 24 -11 20 -7 -2 -19 2 -25 10 -10 11 -9 14 3 14
16 0 30 26 22 40 -3 5 -1 11 5 15 5 3 10 11 10 16 0 6 -5 7 -10 4 -11 -7 -31
35 -23 47 2 5 -8 24 -23 43 -14 19 -22 35 -17 35 5 0 15 -11 21 -25 6 -14 16
-25 22 -25 15 0 12 9 -10 38 -11 14 -17 28 -12 31 5 3 1 19 -8 34 -12 20 -19
24 -23 15 -4 -9 -6 -7 -6 5 -1 25 26 21 40 -6 7 -12 16 -25 20 -28 5 -3 11
-18 13 -35 7 -44 23 -105 30 -112 4 -3 7 7 7 24 0 27 3 86 9 179 l3 40 6 -40
c3 -23 2 -43 -4 -47 -5 -4 0 -6 13 -5 23 1 30 21 12 32 -5 3 -10 12 -10 18 0
7 7 3 16 -8 9 -13 12 -30 8 -49 -5 -23 -3 -28 8 -24 8 3 25 -1 39 -8 13 -8 17
-14 9 -13 -41 4 -50 -2 -60 -40 -7 -25 -7 -48 -1 -64 5 -14 8 -35 5 -48 -4
-23 -4 -23 5 -3 5 12 14 25 20 29 14 8 14 52 1 60 -16 10 -12 25 5 19 10 -4
15 0 15 15 0 12 4 21 9 21 4 0 6 -11 3 -25 -4 -21 -1 -24 13 -19 12 5 15 14
11 33 -4 14 -10 53 -15 86 -10 77 -27 118 -43 109 -10 -6 -11 -4 0 7 19 21 14
31 -10 19 l-23 -11 23 17 c17 13 22 26 22 60 0 23 -5 46 -10 49 -6 4 -7 11 -4
17 4 7 9 6 14 -2 5 -9 9 -9 14 -1 4 6 2 11 -4 11 -6 0 -8 5 -4 13 5 7 0 6 -11
-3 -29 -24 -61 -111 -34 -94 24 15 -23 -43 -65 -80 -38 -33 -43 -42 -33 -55
11 -14 10 -14 -5 -2 -10 7 -24 11 -32 8 -8 -3 -22 0 -32 7 -16 12 -16 14 2 32
11 11 28 18 38 16 11 -2 23 3 28 12 6 10 17 15 27 11 22 -7 45 24 56 75 4 19
13 44 20 55 37 58 22 81 -25 38 -12 -12 -27 -20 -33 -16 -5 3 4 16 19 28 16
13 26 27 22 31 -4 4 -14 1 -23 -6 -13 -11 -15 -9 -15 12 0 14 -6 25 -12 26 -7
1 -24 3 -38 4 -18 2 -27 12 -35 38 -5 19 -16 36 -23 38 -15 3 -15 0 -2 -33 9
-24 8 -25 -10 -15 -14 7 -20 7 -21 0 -1 -5 -2 -14 -3 -19 -3 -21 -16 -23 -16
-3 0 27 -12 28 -35 2 -10 -11 -23 -20 -29 -20 -6 0 4 14 22 31 17 16 33 33 33
37 6 33 4 53 -6 62 -8 7 -11 1 -8 -23 l3 -32 -13 28 -13 28 -12 -23 c-15 -33
-16 3 0 37 8 18 9 29 1 33 -5 4 -12 29 -15 55 -3 28 -13 53 -22 60 -15 11 -15
14 -1 35 18 25 35 29 35 7 0 -19 7 -19 26 -1 10 10 13 28 9 59 -4 36 -2 46 11
51 22 9 32 -3 14 -15 -12 -7 -11 -9 5 -7 53 4 66 -2 81 -38 8 -20 18 -34 21
-30 3 3 14 -3 23 -14 14 -17 25 -19 63 -14 26 4 44 11 41 15 -3 5 0 9 5 9 18
0 12 17 -14 41 -13 13 -25 27 -25 30 0 4 17 9 38 13 20 3 50 12 65 21 15 8 62
17 103 21 124 11 91 19 -62 16 -140 -4 -158 0 -132 26 9 9 7 12 -9 12 -12 0
-24 4 -27 9 -3 4 -24 7 -46 6 -22 -1 -40 1 -40 4 1 10 30 46 30 37 0 -5 6 -4
13 2 16 14 56 22 132 28 33 3 65 10 72 15 6 6 27 7 47 3 25 -4 43 -2 59 9 18
11 25 12 34 2 7 -7 28 -12 47 -10 49 5 58 12 46 36 -6 10 -8 19 -4 19 4 0 -1
9 -11 20 -23 25 -35 25 -35 0 0 -11 5 -20 12 -20 9 0 8 -3 -1 -12 -10 -10 -15
-10 -18 -2 -2 7 -13 10 -24 7 -15 -4 -18 -2 -12 12 4 13 3 16 -5 11 -7 -4 -12
-1 -13 6 0 7 -7 -2 -15 -19 -8 -18 -16 -33 -17 -33 -12 0 3 63 18 80 10 11 13
20 7 20 -6 0 -13 -6 -15 -12 -4 -10 -6 -10 -6 0 -2 22 19 52 34 52 8 0 15 4
15 8 0 14 -65 72 -81 72 -8 0 -23 6 -34 14 -12 8 -49 14 -90 15 -38 1 -81 3
-95 5 -14 2 -34 4 -45 6 -11 1 -15 4 -7 7 17 7 15 33 -2 33 -23 0 -29 36 -12
68 9 17 34 44 56 62 37 30 44 31 65 20 14 -7 27 -22 31 -33 5 -16 8 -17 20 -5
10 10 12 25 6 58 -6 35 -12 45 -33 50 -45 13 -104 -19 -149 -79 -22 -30 -40
-59 -41 -65 0 -6 -3 -22 -5 -36 -3 -14 -6 -34 -8 -45 -1 -11 -7 -32 -14 -46
-6 -15 -9 -35 -7 -45 2 -11 4 -22 4 -26 1 -5 8 -8 16 -8 8 0 15 -7 15 -15 0
-8 4 -15 8 -15 5 0 18 -8 30 -18 17 -15 19 -21 9 -31 -9 -10 -6 -11 16 -6 15
4 27 3 27 -1 -1 -11 -71 -44 -94 -44 -10 0 -20 -9 -23 -20 -3 -11 -10 -20 -15
-20 -5 0 -6 -4 -3 -10 3 -5 2 -10 -4 -10 -6 0 -18 -16 -27 -35 -16 -33 -43
-51 -30 -20 21 52 21 51 2 36 -15 -13 -40 -20 -83 -23 -7 -1 -12 -4 -11 -7 2
-20 -3 -31 -12 -26 -5 3 -10 -1 -10 -9 0 -9 -4 -16 -10 -16 -5 0 -10 -5 -10
-11 0 -5 5 -7 10 -4 6 4 26 1 45 -5 31 -10 34 -14 29 -43 -3 -18 -7 -37 -9
-44 -2 -7 0 -15 5 -18 9 -6 14 14 11 40 0 6 12 26 29 45 l29 35 1 -26 c0 -15
-9 -38 -21 -53 -11 -14 -17 -30 -14 -36 3 -5 1 -10 -5 -10 -6 0 -15 -11 -20
-25 -5 -14 -17 -25 -26 -25 -14 0 -16 -7 -11 -45 5 -36 4 -45 -8 -45 -8 0 -18
12 -21 26 -5 18 -10 22 -17 15 -18 -18 -27 -13 -27 14 0 27 -17 34 -26 10 -8
-20 -21 -19 -41 4 -9 11 -20 18 -25 15 -4 -3 -8 0 -8 6 0 7 -7 10 -14 7 -12
-5 -14 2 -10 31 2 22 1 32 -4 24 -14 -21 -44 -3 -36 22 6 19 5 20 -11 6 -16
-13 -17 -11 -14 31 4 41 2 45 -13 36 -9 -6 -15 -15 -12 -19 3 -4 -2 -5 -10 -2
-9 3 -16 13 -16 21 0 9 5 11 13 7 6 -4 4 2 -5 13 -10 11 -18 25 -18 31 0 11
-4 13 -25 12 -11 -1 -33 25 -28 33 6 10 -23 38 -31 30 -3 -4 -6 1 -6 9 0 9 7
21 15 28 12 10 12 15 -1 35 -8 13 -14 29 -13 37 3 26 -1 39 -11 33 -6 -4 -10
-3 -8 2 1 4 -2 23 -6 42 -7 28 -5 37 10 48 9 7 15 16 11 19 -4 4 -12 2 -19 -4
-9 -7 -16 -6 -25 3 -6 7 -9 15 -6 19 3 3 -1 16 -9 28 -8 13 -18 36 -22 51 -4
18 -12 27 -20 24 -9 -4 -12 0 -9 12 2 10 -2 23 -11 30 -11 10 -13 19 -5 38 10
26 2 43 -31 70 -10 9 -11 12 -2 13 14 0 17 30 2 30 -17 0 -11 16 15 44 14 15
29 25 34 21 5 -3 12 -1 16 5 8 13 35 13 35 -1 0 -18 27 -39 50 -39 11 0 33 -6
48 -14 16 -8 37 -14 47 -13 11 1 19 -4 18 -10 -4 -16 -15 -17 101 11 107 27
127 36 77 36 -23 0 -31 4 -27 13 3 6 9 20 12 30 4 9 11 17 16 17 21 0 78 33
78 45 0 7 18 15 43 19 32 5 49 14 65 36 12 16 22 35 22 42 1 33 16 38 55 17
51 -27 52 -28 36 -38 -9 -6 -4 -11 17 -19 25 -8 30 -16 28 -36 -1 -14 -7 -31
-13 -38 -16 -21 -23 -48 -12 -48 5 0 25 6 43 14 19 8 57 13 85 13 28 -1 51 1
51 6 0 4 5 7 10 7 6 0 10 -6 10 -14 0 -18 37 -17 44 1 3 8 -1 10 -12 6 -14 -5
-15 -3 -4 8 18 20 15 32 -8 26 -25 -6 -25 -2 -1 22 17 17 24 68 22 165 0 11
-14 32 -30 47 -17 15 -31 33 -31 38 0 6 -4 11 -9 11 -5 0 -7 -9 -4 -20 4 -16
-3 -23 -32 -36 -23 -9 -35 -20 -32 -28 7 -17 -20 -56 -37 -56 -8 0 -33 9 -57
20 -24 11 -55 19 -69 19 -19 0 -12 -5 24 -19 28 -11 57 -27 65 -36 15 -15 14
-16 -9 -11 -14 3 -51 14 -82 26 -32 12 -76 21 -98 21 -23 0 -40 5 -40 11 0 18
-97 3 -177 -26 -37 -13 -69 -22 -72 -20 -2 3 2 5 10 5 7 0 3 7 -10 17 -20 13
-22 18 -10 27 8 6 19 20 25 31 25 45 57 57 168 62 76 4 110 2 120 -6 17 -14
36 -7 36 14 0 8 8 12 19 10 11 -2 55 -6 98 -10 l78 -6 -24 25 c-14 15 -21 31
-17 41 3 10 2 14 -5 10 -5 -4 -17 -1 -25 6 -12 10 -12 14 -2 20 7 4 18 3 26
-3 9 -8 16 -8 23 -1 8 8 7 13 -3 19 -21 13 -38 13 -38 1 0 -7 -7 -4 -14 6 -12
15 -27 18 -83 16 -37 -1 -73 -6 -80 -11 -13 -11 -85 -20 -123 -17 -46 4 -205
1 -225 -4 -11 -3 -27 -7 -35 -10 -8 -2 -12 -2 -7 0 14 8 7 25 -8 19 -8 -3 -15
-1 -15 4 0 5 -7 7 -15 4 -12 -5 -13 -10 -4 -20 8 -9 8 -14 1 -14 -6 0 -13 4
-16 9 -3 5 -15 7 -25 4 -10 -3 -22 1 -26 8 -5 8 -4 10 3 5 8 -5 10 -2 6 9 -4
9 -12 14 -18 12 -6 -2 -22 5 -36 15 -22 17 -25 18 -28 4 -2 -9 -8 -16 -14 -16
-6 0 -8 9 -5 19 2 10 1 25 -4 32 -4 8 -3 19 3 26 8 10 6 13 -7 13 -14 0 -16 6
-12 29 4 19 2 31 -7 34 -17 7 -27 57 -15 79 21 39 173 138 212 138 9 0 18 4
22 9 6 11 93 71 101 71 3 0 17 11 32 25 15 14 42 31 60 37 17 7 32 15 32 19 0
4 21 15 48 25 26 10 52 21 57 25 9 6 77 29 220 74 22 7 73 13 114 14 41 1 77
4 80 6 4 2 47 7 96 11 50 4 97 8 105 8 8 1 69 -3 135 -10 65 -7 125 -10 132
-7 7 3 13 0 13 -6 0 -6 9 -11 19 -11 11 0 40 -9 66 -20 25 -11 60 -21 78 -23
18 -2 72 -23 121 -46 48 -23 91 -40 93 -37 3 3 14 -4 26 -14 14 -14 28 -18 45
-13 17 4 23 2 18 -5 -7 -12 30 -36 43 -28 5 3 12 -1 15 -10 4 -9 13 -14 21
-10 8 3 15 1 15 -5 0 -6 5 -7 10 -4 6 4 9 3 8 -2 -2 -4 0 -9 4 -11 4 -1 20
-15 37 -30 43 -40 88 -72 100 -72 6 0 11 -6 11 -14 0 -15 29 -30 39 -21 3 3
-1 15 -8 26 -7 12 -10 23 -7 26 6 6 -4 16 -69 68 -27 22 -51 43 -53 48 -2 4
-8 7 -13 7 -5 0 -27 11 -49 25 -22 14 -46 25 -54 25 -7 0 -19 7 -26 15 -6 8
-15 14 -18 13 -22 -2 -42 3 -38 11 7 11 -52 33 -65 25 -5 -3 -9 -2 -8 3 3 20
-2 25 -15 14 -9 -7 -17 -8 -20 -2 -3 5 -14 8 -24 6 -9 -1 -11 0 -4 2 6 3 12 8
12 12 0 10 -163 62 -206 66 -19 2 -40 8 -47 13 -18 15 -145 24 -153 11 -4 -8
-9 -7 -14 2 -6 9 -46 13 -137 16 -71 2 -131 1 -134 -1z m-1014 -1037 c11 -17
-1 -21 -15 -4 -8 9 -8 15 -2 15 6 0 14 -5 17 -11z m466 -92 c-11 -11 -61 20
-61 37 0 26 15 25 42 -1 17 -16 24 -31 19 -36z m-791 -450 c17 -14 25 -77 10
-77 -11 0 -40 59 -40 80 0 13 11 12 30 -3z m1236 -172 c-21 -16 -32 -13 -21 4
3 6 14 11 23 11 15 -1 15 -2 -2 -15z m-254 -205 c1 -14 8 -28 13 -32 6 -5 3
-8 -6 -8 -18 0 -31 33 -22 56 7 19 10 15 15 -16z m1438 -71 c0 -5 -4 -9 -10
-9 -5 0 -10 7 -10 16 0 8 5 12 10 9 6 -3 10 -10 10 -16z m20 6 c0 -8 -2 -15
-4 -15 -2 0 -6 7 -10 15 -3 8 -1 15 4 15 6 0 10 -7 10 -15z m-60 -81 c0 -8 -5
-12 -10 -9 -6 4 -8 11 -5 16 9 14 15 11 15 -7z m-1450 2 c0 -3 -4 -8 -10 -11
-5 -3 -10 -1 -10 4 0 6 5 11 10 11 6 0 10 -2 10 -4z m1477 -52 c-3 -3 -12 -4
-19 -1 -8 3 -5 6 6 6 11 1 17 -2 13 -5z m-44 -11 c-7 -2 -19 -2 -25 0 -7 3 -2
5 12 5 14 0 19 -2 13 -5z m-1610 -50 c-6 -14 -8 -14 -14 3 -12 30 -10 37 5 24
8 -6 12 -19 9 -27z m1443 -15 l19 -21 -27 18 c-29 18 -34 25 -20 25 5 0 17
-10 28 -22z m164 -33 c0 -8 -4 -15 -10 -15 -5 0 -7 7 -4 15 4 8 8 15 10 15 2
0 4 -7 4 -15z m-225 -15 c3 -5 1 -10 -4 -10 -6 0 -11 5 -11 10 0 6 2 10 4 10
3 0 8 -4 11 -10z m510 0 c3 -5 1 -10 -4 -10 -6 0 -11 5 -11 10 0 6 2 10 4 10
3 0 8 -4 11 -10z m-155 -20 c0 -5 -7 -7 -15 -4 -8 4 -15 8 -15 10 0 2 7 4 15
4 8 0 15 -4 15 -10z m90 0 c0 -5 -2 -10 -4 -10 -3 0 -8 5 -11 10 -3 6 -1 10 4
10 6 0 11 -4 11 -10z m-433 -37 c-3 -10 -5 -4 -5 12 0 17 2 24 5 18 2 -7 2
-21 0 -30z m533 29 c0 -5 -7 -9 -15 -9 -8 0 -12 4 -9 9 3 4 9 8 15 8 5 0 9 -4
9 -8z m-415 -12 c3 -6 -1 -7 -9 -4 -18 7 -21 14 -7 14 6 0 13 -4 16 -10z m375
-30 c0 -5 -2 -10 -4 -10 -3 0 -8 5 -11 10 -3 6 -1 10 4 10 6 0 11 -4 11 -10z
m-47 -19 c-5 -21 -43 -65 -49 -58 -6 5 38 76 48 77 3 0 4 -9 1 -19z m-418 -61
c10 -11 16 -20 13 -20 -3 0 -13 9 -23 20 -10 11 -16 20 -13 20 3 0 13 -9 23
-20z m338 -7 c-7 -2 -21 -2 -30 0 -10 3 -4 5 12 5 17 0 24 -2 18 -5z m-357
-34 c24 -26 25 -30 7 -20 -13 6 -27 20 -33 31 -15 28 -8 25 26 -11z m411 5
c-7 -7 -37 7 -37 17 0 6 9 5 21 -1 11 -7 19 -14 16 -16z m73 -4 c-8 -5 -19
-10 -25 -10 -5 0 -3 5 5 10 8 5 20 10 25 10 6 0 3 -5 -5 -10z m-40 -35 c0 -9
-6 -12 -16 -8 -13 5 -13 7 -2 14 17 11 18 11 18 -6z m-1770 -23 c0 -15 -2 -15
-10 -2 -13 20 -13 33 0 25 6 -3 10 -14 10 -23z m216 -24 c-6 -10 -15 -18 -20
-18 -4 0 -3 6 3 14 6 7 8 22 4 32 -6 16 -5 17 9 4 12 -11 13 -19 4 -32z m1114
-7 c0 -11 -4 -22 -9 -25 -5 -3 -8 5 -7 19 1 29 16 34 16 6z m-1350 -28 c-11
-17 -11 -17 -6 0 3 10 6 24 7 30 0 9 2 9 5 0 3 -7 0 -20 -6 -30z m120 33 c0
-3 -4 -8 -10 -11 -5 -3 -10 -1 -10 4 0 6 5 11 10 11 6 0 10 -2 10 -4z m21 -49
c-6 -8 -12 -23 -14 -35 -5 -31 -19 -41 -15 -10 3 24 24 58 35 58 3 0 0 -6 -6
-13z m1267 -32 c5 -11 17 -39 27 -62 17 -40 55 -83 74 -83 6 0 13 -5 16 -10
14 -23 -46 3 -78 33 -17 17 -26 27 -18 22 11 -6 13 -4 6 11 -4 10 -13 33 -19
50 -13 36 -34 64 -48 64 -5 0 -8 -6 -7 -12 1 -7 0 -26 -1 -43 -2 -21 -4 -24
-7 -11 -3 11 -12 26 -20 35 -14 13 -13 16 6 25 11 5 21 13 21 18 0 14 38 -15
48 -37z m-1341 13 c-3 -8 -6 -5 -6 6 -1 11 2 17 5 13 3 -3 4 -12 1 -19z m255
-10 c6 -17 -1 -38 -13 -38 -5 0 -9 11 -9 25 0 26 14 34 22 13z m-354 -34 c-3
-14 -5 -12 -10 9 -3 19 -2 25 4 19 6 -6 8 -18 6 -28z m291 5 c-6 -12 -9 -34
-5 -49 6 -31 0 -41 -19 -34 -10 4 -9 14 2 47 16 45 22 57 29 57 3 0 0 -10 -7
-21z m951 2 c0 -11 5 -23 10 -26 6 -3 10 -11 10 -17 0 -17 -37 20 -43 43 -3
12 0 19 9 19 8 0 14 -9 14 -19z m-1175 -2 c11 -16 1 -19 -13 -3 -7 8 -8 14 -3
14 5 0 13 -5 16 -11z m59 -15 c3 -8 2 -12 -4 -9 -6 3 -10 10 -10 16 0 14 7 11
14 -7z m1735 -8 c-11 -11 -59 -17 -59 -7 0 6 7 8 15 5 9 -4 18 1 21 11 5 11
10 13 17 6 6 -6 9 -13 6 -15z m-345 -2 c3 -8 2 -12 -4 -9 -6 3 -10 10 -10 16
0 14 7 11 14 -7z m-1154 -24 c-6 -12 -14 -20 -17 -17 -2 3 1 14 8 26 17 26 24
19 9 -9z m-194 -17 c-7 -7 -26 7 -26 19 0 6 6 6 15 -2 9 -7 13 -15 11 -17z
m1181 5 c6 -7 16 -34 22 -59 11 -40 11 -51 -3 -78 -23 -44 -28 -39 -10 11 14
40 13 45 -9 90 -22 45 -22 64 0 36z m85 -18 c14 -16 23 -30 20 -30 -4 0 -7
-26 -8 -58 0 -33 -7 -72 -17 -91 -21 -42 -21 -45 -1 -37 9 4 14 1 12 -6 -2 -6
-14 -12 -27 -13 -16 -1 -20 2 -15 14 4 9 9 26 11 39 3 12 9 22 14 22 5 0 9 5
9 11 0 5 -5 7 -11 3 -8 -4 -8 -1 -1 12 5 11 7 25 4 33 -3 8 0 11 7 7 30 -19
-2 96 -33 116 -7 5 -7 8 -1 8 6 0 22 -13 37 -30z m-159 0 c3 -11 1 -18 -4 -14
-5 3 -9 12 -9 20 0 20 7 17 13 -6z m487 15 c0 -2 -10 -9 -22 -15 -22 -11 -22
-10 -4 4 21 17 26 19 26 11z m-1340 -59 c0 -2 -8 -10 -17 -17 -16 -13 -17 -12
-4 4 13 16 21 21 21 13z m926 -33 c-2 -2 -11 0 -20 3 -14 5 -15 9 -5 15 12 7
34 -10 25 -18z m138 -29 c3 -8 2 -12 -4 -9 -6 3 -10 10 -10 16 0 14 7 11 14
-7z m-139 -64 c10 -11 14 -20 9 -20 -5 0 -15 9 -22 20 -7 11 -11 20 -9 20 2 0
12 -9 22 -20z m215 -41 c0 -4 6 -6 14 -5 8 0 15 -2 15 -6 3 -37 -2 -36 -44 4
-51 49 -59 69 -15 36 17 -12 30 -25 30 -29z m-1110 -3 c0 -3 -4 -8 -10 -11 -5
-3 -10 -1 -10 4 0 6 5 11 10 11 6 0 10 -2 10 -4z m752 -48 c-7 -7 -12 -8 -12
-2 0 14 12 26 19 19 2 -3 -1 -11 -7 -17z m47 -12 c-3 -3 -11 5 -18 17 -13 21
-12 21 5 5 10 -10 16 -20 13 -22z m186 -16 c3 -5 -1 -10 -10 -10 -9 0 -13 5
-10 10 3 6 8 10 10 10 2 0 7 -4 10 -10z m-202 -46 c-8 -13 -19 -24 -24 -24 -5
0 -2 11 7 25 9 14 12 30 8 37 -6 10 -4 10 9 0 15 -13 15 -16 0 -38z m79 -32
c4 -13 -1 -18 -16 -20 -15 -1 -17 1 -7 7 8 5 11 16 8 26 -4 9 -3 14 2 11 5 -3
11 -14 13 -24z m-175 -84 c-3 -7 -5 -2 -5 12 0 14 2 19 5 13 2 -7 2 -19 0 -25z
m-922 2 c-3 -5 -11 -10 -16 -10 -6 0 -7 5 -4 10 3 6 11 10 16 10 6 0 7 -4 4
-10z m475 -37 c-11 -17 -11 -17 -6 0 3 10 6 24 7 30 0 9 2 9 5 0 3 -7 0 -20
-6 -30z m32 7 c-2 -16 -8 -30 -13 -30 -12 0 -11 17 1 41 15 26 17 24 12 -11z
m328 5 c6 -8 10 -20 7 -27 -4 -8 -6 -7 -6 4 -1 9 -9 22 -18 27 -10 6 -13 11
-7 11 6 0 17 -7 24 -15z m-753 -67 c-3 -8 -6 -5 -6 6 -1 11 2 17 5 13 3 -3 4
-12 1 -19z m493 13 c0 -6 -4 -13 -10 -16 -5 -3 -10 1 -10 9 0 9 5 16 10 16 6
0 10 -4 10 -9z m-453 -7 c-3 -3 -12 -4 -19 -1 -8 3 -5 6 6 6 11 1 17 -2 13 -5z
m116 -19 c-3 -8 -11 -15 -19 -15 -12 0 -12 4 -2 19 13 22 30 18 21 -4z"/>
<path d="M3773 3486 c15 -22 15 -25 1 -30 -12 -4 -14 -13 -10 -32 5 -18 3 -24
-5 -19 -8 6 -8 2 0 -14 7 -11 16 -21 21 -21 6 0 10 -7 10 -15 0 -8 8 -15 18
-16 14 0 14 -2 -3 -8 -12 -5 -23 -4 -27 3 -11 16 -19 2 -25 -42 -4 -33 -2 -42
15 -51 10 -6 22 -7 26 -4 3 3 6 1 6 -5 0 -7 -9 -19 -19 -28 -18 -16 -18 -18 7
-68 14 -28 26 -58 27 -66 0 -8 9 -15 20 -15 31 0 44 62 38 194 -5 122 -13 150
-64 209 -16 18 -29 37 -29 42 0 6 -5 10 -11 10 -7 0 -5 -9 4 -24z m25 -71 c-3
-3 -9 2 -12 12 -6 14 -5 15 5 6 7 -7 10 -15 7 -18z m29 -121 c-3 -3 -12 -4
-19 -1 -8 3 -5 6 6 6 11 1 17 -2 13 -5z m23 -68 c0 -2 -7 -7 -16 -10 -8 -3
-12 -2 -9 4 6 10 25 14 25 6z m-12 -109 c2 -9 -1 -17 -7 -17 -6 0 -11 6 -11
14 0 8 -6 17 -12 20 -7 3 -4 5 7 3 11 -1 21 -10 23 -20z"/>
<path d="M3690 3486 c0 -2 8 -10 18 -17 15 -13 16 -12 3 4 -13 16 -21 21 -21
13z"/>
<path d="M1550 3414 c0 -8 5 -12 10 -9 6 4 8 11 5 16 -9 14 -15 11 -15 -7z"/>
<path d="M3062 3215 c-77 -13 -95 -21 -68 -31 16 -6 16 -8 0 -25 -15 -17 -15
-19 -1 -19 8 0 17 5 19 12 3 8 9 8 24 0 10 -6 14 -12 8 -12 -5 0 -19 -6 -30
-14 -17 -13 -15 -14 21 -6 133 27 194 44 189 52 -3 4 6 8 20 8 25 0 25 1 9 19
-11 14 -21 17 -32 11 -10 -5 -26 -3 -41 6 -29 15 -22 15 -118 -1z"/>
<path d="M3302 3219 c-13 -5 -28 -7 -33 -3 -5 3 -9 1 -9 -5 0 -14 31 -19 62
-8 17 5 34 4 48 -3 13 -7 20 -7 16 -2 -11 18 -60 30 -84 21z"/>
<path d="M3410 3198 c11 -12 23 -18 27 -15 3 4 -2 14 -13 22 -29 22 -37 18
-14 -7z"/>
<path d="M3325 3190 c-3 -5 -2 -10 4 -10 5 0 13 5 16 10 3 6 2 10 -4 10 -5 0
-13 -4 -16 -10z"/>
<path d="M3460 3187 c0 -2 11 -13 25 -25 17 -15 25 -17 25 -9 0 8 -11 19 -25
25 -14 6 -25 10 -25 9z"/>
<path d="M2390 3105 c7 -8 17 -15 22 -15 6 0 5 7 -2 15 -7 8 -17 15 -22 15 -6
0 -5 -7 2 -15z"/>
<path d="M2370 3090 c0 -5 5 -10 11 -10 5 0 7 5 4 10 -3 6 -8 10 -11 10 -2 0
-4 -4 -4 -10z"/>
<path d="M3085 3022 c-81 -28 -181 -92 -144 -92 7 0 4 -6 -7 -14 -33 -25 -5
-39 60 -31 53 7 70 25 23 25 -19 0 -17 4 13 22 19 13 37 26 38 30 10 22 40 5
57 -31 19 -44 52 -56 115 -43 29 6 39 15 56 51 l21 44 44 -42 c35 -34 49 -41
69 -36 14 4 28 11 31 17 4 6 12 7 18 4 20 -13 12 12 -15 44 -15 17 -45 40 -68
51 -22 10 -32 14 -21 7 26 -18 75 -68 75 -79 0 -11 -51 10 -65 27 -18 20 -115
44 -184 45 -46 0 -60 3 -46 9 l20 9 -20 0 c-11 0 -43 -7 -70 -17z"/>
<path d="M3840 3024 c0 -8 5 -12 10 -9 6 4 8 11 5 16 -9 14 -15 11 -15 -7z"/>
<path d="M1647 2483 c-4 -3 -7 -11 -7 -17 0 -6 5 -5 12 2 6 6 9 14 7 17 -3 3
-9 2 -12 -2z"/>
<path d="M1675 2449 c-4 -6 -5 -12 -2 -15 2 -3 7 2 10 11 7 17 1 20 -8 4z"/>
<path d="M1710 2444 c0 -8 5 -12 10 -9 6 4 8 11 5 16 -9 14 -15 11 -15 -7z"/>
<path d="M2537 2391 c7 -28 28 -44 50 -38 14 4 13 5 -4 6 -13 0 -23 7 -23 15
0 7 -6 19 -14 25 -12 10 -13 8 -9 -8z"/>
<path d="M2520 2356 c0 -9 5 -16 10 -16 6 0 10 4 10 9 0 6 -4 13 -10 16 -5 3
-10 -1 -10 -9z"/>
<path d="M1710 2255 c0 -8 2 -15 4 -15 2 0 6 7 10 15 3 8 1 15 -4 15 -6 0 -10
-7 -10 -15z"/>
<path d="M1730 2235 c0 -8 4 -15 10 -15 5 0 7 7 4 15 -4 8 -8 15 -10 15 -2 0
-4 -7 -4 -15z"/>
<path d="M2980 2143 c0 -5 9 -18 20 -28 11 -10 20 -15 20 -11 0 4 -9 16 -20
28 -11 12 -20 17 -20 11z"/>
<path d="M2936 2131 c-10 -4 -20 -18 -22 -32 -2 -19 3 -24 22 -25 13 -1 24 2
24 7 0 5 5 8 12 7 6 -2 13 5 16 14 4 21 -27 38 -52 29z"/>
<path d="M2830 2090 c0 -4 7 -13 15 -20 16 -13 58 -4 49 12 -4 6 -10 5 -15 -3
-5 -9 -9 -9 -9 -3 0 7 -9 14 -20 17 -11 3 -20 2 -20 -3z"/>
<path d="M3108 1943 c12 -2 30 -2 40 0 9 3 -1 5 -23 4 -22 0 -30 -2 -17 -4z"/>
<path d="M2106 1904 c-5 -12 -2 -15 10 -10 8 3 20 6 25 6 6 0 7 5 4 10 -10 15
-32 12 -39 -6z"/>
<path d="M2750 1900 c0 -6 11 -8 28 -4 39 10 40 14 4 14 -18 0 -32 -5 -32 -10z"/>
<path d="M3510 1895 c0 -16 16 -20 24 -6 3 5 -1 11 -9 15 -9 3 -15 0 -15 -9z"/>
<path d="M2095 1771 c-3 -5 -1 -12 4 -15 5 -3 11 1 15 9 6 16 -9 21 -19 6z"/>
<path d="M2743 1635 c1 -30 -5 -43 -27 -62 -16 -13 -25 -27 -22 -30 10 -10 64
47 71 75 4 16 1 30 -8 40 -13 13 -15 10 -14 -23z"/>
<path d="M2557 1643 c-10 -9 -9 -23 1 -23 5 0 9 7 9 15 0 17 -1 18 -10 8z"/>
<path d="M2689 1633 c0 -10 -2 -26 -4 -36 -2 -9 1 -15 6 -11 5 3 7 9 4 14 -3
4 2 13 10 20 19 16 19 30 0 30 -8 0 -15 -8 -16 -17z"/>
<path d="M2630 1625 c0 -6 8 -11 19 -11 10 0 17 5 14 11 -2 7 -10 12 -18 12
-8 0 -15 -5 -15 -12z"/>
<path d="M3300 1495 c7 -9 15 -13 17 -11 7 7 -7 26 -19 26 -6 0 -6 -6 2 -15z"/>
<path d="M3167 1403 c-13 -12 -7 -60 8 -73 12 -10 15 -10 15 1 1 8 12 -6 25
-31 27 -51 33 -43 7 10 -9 19 -24 35 -31 35 -8 0 -16 6 -19 14 -3 8 0 11 5 8
6 -4 8 4 5 18 -5 27 -6 28 -15 18z"/>
<path d="M2614 1380 c-22 -8 -52 -75 -40 -87 3 -4 6 1 6 10 0 21 49 79 61 71
5 -3 9 0 9 5 0 13 -7 13 -36 1z"/>
<path d="M2515 1370 c-3 -5 -1 -10 4 -10 6 0 11 5 11 10 0 6 -2 10 -4 10 -3 0
-8 -4 -11 -10z"/>
<path d="M3210 1361 c0 -6 4 -13 10 -16 6 -3 7 1 4 9 -7 18 -14 21 -14 7z"/>
<path d="M2553 1338 c-19 -23 -27 -61 -12 -56 7 2 16 17 21 33 8 33 5 41 -9
23z"/>
<path d="M2623 1328 c-21 -28 -14 -168 9 -168 6 0 9 3 5 6 -8 8 13 64 24 64 5
0 9 5 9 10 0 6 -3 9 -7 9 -19 -3 -33 2 -33 12 0 5 5 7 10 4 12 -7 13 44 1 63
-6 11 -10 11 -18 0z"/>
<path d="M3138 1304 c14 -27 52 -60 52 -46 0 7 -3 12 -8 12 -4 0 -12 10 -17
22 -6 12 -16 24 -23 26 -11 3 -12 0 -4 -14z"/>
<path d="M3190 1295 c0 -5 5 -17 10 -25 5 -8 10 -10 10 -5 0 6 -5 17 -10 25
-5 8 -10 11 -10 5z"/>
<path d="M2525 1257 c-5 -7 -11 -19 -13 -27 -1 -11 2 -10 12 3 14 18 15 18 25
0 9 -16 10 -14 9 10 -2 29 -16 35 -33 14z"/>
<path d="M2885 1260 c-3 -5 -1 -19 5 -30 6 -12 9 -29 7 -38 -4 -14 -5 -13 -6
3 -1 11 -10 31 -21 45 -19 25 -20 25 -20 3 0 -12 -9 -27 -20 -33 -11 -6 -20
-17 -20 -25 0 -8 -4 -15 -10 -15 -5 0 -10 5 -10 12 0 6 -3 8 -6 5 -4 -4 -1
-14 7 -23 11 -13 11 -18 2 -21 -18 -6 -16 -16 7 -43 15 -17 17 -26 9 -36 -7
-9 -7 -19 0 -33 8 -14 8 -20 0 -23 -17 -6 -19 -51 -3 -73 13 -18 14 -18 15 6
1 20 2 21 6 4 3 -11 9 -25 14 -31 14 -17 49 -5 49 17 0 21 16 26 23 7 3 -7 6
-3 6 10 1 12 6 22 12 22 6 0 9 -7 6 -14 -11 -27 17 -6 41 30 14 21 18 34 10
32 -7 -3 -19 2 -27 9 -8 8 -22 12 -32 10 -18 -5 -18 -4 1 20 11 14 20 33 20
41 0 13 -3 12 -19 -2 -11 -10 -24 -15 -29 -12 -6 3 -13 -10 -16 -29 -8 -39
-17 -43 -37 -18 -12 14 -12 16 2 11 9 -3 16 -1 17 5 0 7 4 29 8 50 5 31 3 44
-16 69 -13 18 -18 34 -13 39 6 6 14 0 21 -16 7 -14 17 -36 23 -49 6 -13 9 -29
5 -34 -11 -18 15 -25 32 -8 13 13 14 21 5 48 -7 18 -15 50 -19 71 -7 39 -18
54 -29 37z m58 -265 c-3 -9 -8 -14 -10 -11 -3 3 -2 9 2 15 9 16 15 13 8 -4z"/>
<path d="M2927 1263 c-4 -3 -4 -17 -2 -29 3 -13 7 -35 10 -49 7 -32 23 -24 23
11 0 30 -22 77 -31 67z"/>
<path d="M3190 1223 c0 -12 5 -25 10 -28 13 -8 13 15 0 35 -8 12 -10 11 -10
-7z"/>
<path d="M3237 1227 c-3 -9 -2 -31 4 -49 6 -22 6 -42 -2 -60 -13 -32 -9 -70 9
-76 7 -2 12 6 12 23 0 17 -4 24 -12 19 -7 -5 -8 -3 -3 6 6 10 11 9 22 -5 7
-11 13 -25 13 -32 0 -7 5 -13 10 -13 15 0 12 37 -5 71 -9 16 -14 33 -11 37 2
4 -4 27 -13 51 -13 31 -20 39 -24 28z"/>
<path d="M2566 1214 c-8 -22 -8 -26 4 -19 6 3 10 1 10 -4 0 -6 4 -11 9 -11 4
0 6 11 3 25 -5 28 -17 33 -26 9z"/>
<path d="M2527 1213 c-10 -22 -7 -84 6 -97 16 -17 29 -10 47 23 10 19 10 25
-1 32 -9 6 -18 3 -26 -8 -14 -18 -15 -15 -15 30 -1 27 -4 33 -11 20z"/>
<path d="M2751 1194 c0 -11 3 -14 6 -6 3 7 2 16 -1 19 -3 4 -6 -2 -5 -13z"/>
<path d="M2732 1165 c0 -16 2 -22 5 -12 2 9 2 23 0 30 -3 6 -5 -1 -5 -18z"/>
<path d="M2712 1155 c0 -16 2 -22 5 -12 2 9 2 23 0 30 -3 6 -5 -1 -5 -18z"/>
<path d="M3044 1167 c-3 -9 1 -24 11 -33 15 -15 15 -14 9 12 -9 37 -12 41 -20
21z"/>
<path d="M3197 1173 c-4 -3 -7 -11 -7 -17 0 -6 5 -5 12 2 6 6 9 14 7 17 -3 3
-9 2 -12 -2z"/>
<path d="M2971 1163 c0 -6 -4 -20 -7 -30 -5 -14 -4 -15 5 -7 7 7 11 20 8 30
-3 11 -5 14 -6 7z"/>
<path d="M2357 1145 c-10 -7 -14 -16 -9 -19 5 -3 15 1 22 9 17 21 9 27 -13 10z"/>
<path d="M2587 1123 c-20 -39 -28 -78 -21 -98 5 -13 8 -14 15 -3 6 9 9 7 9 -8
0 -12 6 -26 13 -32 10 -9 12 6 9 76 -2 48 -5 89 -7 90 -2 2 -10 -9 -18 -25z"/>
<path d="M2321 1124 c0 -11 3 -14 6 -6 3 7 2 16 -1 19 -3 4 -6 -2 -5 -13z"/>
<path d="M2750 1133 c0 -5 7 -18 15 -29 13 -18 14 -18 8 4 -5 22 -23 41 -23
25z"/>
<path d="M3177 1098 c-2 -18 -1 -42 2 -53 4 -11 7 -44 7 -72 -1 -31 3 -52 9
-50 14 5 19 107 5 107 -6 0 -8 5 -5 10 4 6 11 7 17 4 7 -4 8 -2 4 5 -4 6 -12
9 -17 5 -6 -3 -9 9 -7 30 3 46 -8 57 -15 14z"/>
<path d="M3050 1099 c0 -5 5 -7 10 -4 6 3 10 8 10 11 0 2 -4 4 -10 4 -5 0 -10
-5 -10 -11z"/>
<path d="M3115 1087 c-8 -31 -5 -40 11 -29 6 4 7 18 4 32 l-7 25 -8 -28z"/>
<path d="M2735 1090 c-3 -5 -1 -10 4 -10 6 0 11 5 11 10 0 6 -2 10 -4 10 -3 0
-8 -4 -11 -10z"/>
<path d="M2980 1063 c0 -14 1 -24 3 -22 1 2 8 11 15 20 10 14 10 18 -3 23 -11
4 -15 -1 -15 -21z"/>
<path d="M2782 1050 c0 -19 2 -27 5 -17 2 9 2 25 0 35 -3 9 -5 1 -5 -18z"/>
<path d="M3125 1040 c-3 -5 -3 -10 2 -10 4 0 2 -4 -5 -9 -10 -6 -10 -10 1 -20
12 -9 15 -7 19 14 5 26 -6 43 -17 25z"/>
<path d="M3050 1020 c-14 -27 -10 -32 12 -16 10 8 14 17 8 25 -6 11 -11 8 -20
-9z"/>
<path d="M3290 1020 c-9 -6 -10 -10 -3 -10 6 0 15 5 18 10 8 12 4 12 -15 0z"/>
<path d="M3060 985 c-8 -9 -8 -15 -2 -15 12 0 26 19 19 26 -2 2 -10 -2 -17
-11z"/>
<path d="M3100 986 c0 -9 5 -16 10 -16 6 0 10 4 10 9 0 6 -4 13 -10 16 -5 3
-10 -1 -10 -9z"/>
<path d="M2436 981 c-4 -7 -5 -15 -2 -18 9 -9 19 4 14 18 -4 11 -6 11 -12 0z"/>
<path d="M3010 955 c0 -8 2 -15 4 -15 2 0 6 7 10 15 3 8 1 15 -4 15 -6 0 -10
-7 -10 -15z"/>
<path d="M3084 928 c-19 -22 -22 -68 -4 -68 5 0 11 -8 13 -17 4 -15 5 -14 6 3
0 11 -4 25 -10 31 -7 7 -4 9 14 6 30 -6 42 19 24 47 -15 25 -19 25 -43 -2z
m27 -25 c13 -16 12 -17 -3 -4 -10 7 -18 15 -18 17 0 8 8 3 21 -13z"/>
<path d="M3135 930 c3 -5 11 -10 16 -10 6 0 7 5 4 10 -3 6 -11 10 -16 10 -6 0
-7 -4 -4 -10z"/>
<path d="M2782 905 c8 -18 8 -29 1 -36 -13 -13 6 -71 22 -66 13 5 13 63 0 60
-6 -1 -10 14 -10 33 1 22 -3 34 -11 34 -11 0 -11 -5 -2 -25z"/>
<path d="M2896 912 c-14 -23 -25 -62 -17 -62 11 0 36 59 28 66 -3 3 -8 1 -11
-4z"/>
<path d="M2963 905 c-3 -9 -3 -18 -1 -21 3 -3 8 4 11 16 6 23 -1 27 -10 5z"/>
<path d="M2533 882 c-3 -12 -8 -20 -12 -18 -8 6 -8 -90 1 -99 4 -4 4 -13 1
-21 -3 -8 0 -14 7 -14 7 0 10 8 7 20 -3 11 3 30 14 44 21 27 25 51 9 61 -5 3
-10 1 -10 -4 0 -6 -4 -11 -10 -11 -6 0 -6 9 1 26 5 15 7 29 4 32 -3 4 -8 -4
-12 -16z m12 -72 c3 -5 1 -10 -4 -10 -6 0 -11 5 -11 10 0 6 2 10 4 10 3 0 8
-4 11 -10z"/>
<path d="M2997 893 c-7 -12 21 -92 39 -110 17 -18 41 11 25 30 -6 8 -7 18 -3
23 4 4 -1 2 -10 -5 -16 -12 -18 -11 -18 5 -1 26 -26 69 -33 57z"/>
<path d="M2816 875 c4 -8 9 -15 14 -15 4 0 6 -17 5 -37 -2 -26 -8 -39 -19 -41
-33 -7 -2 -38 34 -33 13 2 13 1 0 -8 -22 -15 -5 -24 19 -9 21 13 29 38 12 38
-13 0 -24 38 -23 78 1 26 -2 33 -13 28 -8 -3 -15 -1 -15 4 0 6 -4 10 -10 10
-5 0 -7 -7 -4 -15z"/>
<path d="M2893 831 c-8 -30 -8 -38 2 -35 7 3 15 -2 18 -10 9 -24 34 -19 41 7
8 31 7 37 -5 37 -6 0 -8 -7 -5 -16 3 -8 2 -13 -3 -10 -5 3 -11 14 -14 25 -3
14 -1 18 9 14 8 -3 14 0 14 6 0 6 -4 11 -9 11 -5 0 -16 2 -24 6 -10 4 -17 -6
-24 -35z"/>
<path d="M3110 862 c0 -10 33 -42 44 -42 9 0 -27 49 -36 50 -5 0 -8 -4 -8 -8z"/>
<path d="M2441 844 c0 -11 3 -14 6 -6 3 7 2 16 -1 19 -3 4 -6 -2 -5 -13z"/>
<path d="M2745 830 c3 -5 8 -10 11 -10 2 0 4 5 4 10 0 6 -5 10 -11 10 -5 0 -7
-4 -4 -10z"/>
<path d="M2995 799 c-9 -14 3 -59 15 -59 13 0 13 37 0 45 -6 4 -8 11 -5 16 4
5 4 9 1 9 -3 0 -8 -5 -11 -11z"/>
<path d="M2405 790 c-3 -5 1 -10 9 -10 9 0 16 5 16 10 0 6 -4 10 -9 10 -6 0
-13 -4 -16 -10z"/>
<path d="M2757 773 c-13 -12 -7 -21 18 -26 25 -4 25 -4 9 14 -19 22 -18 21
-27 12z"/>
<path d="M2425 762 c-5 -4 -11 -15 -13 -26 -3 -14 1 -17 13 -12 9 3 23 6 31 6
8 0 14 9 14 20 0 20 -25 27 -45 12z"/>
<path d="M2705 730 c4 -6 11 -8 16 -5 14 9 11 15 -7 15 -8 0 -12 -5 -9 -10z"/>
<path d="M2555 691 c-3 -5 -1 -12 5 -16 5 -3 10 1 10 9 0 18 -6 21 -15 7z"/>
</g>
</svg>
